<?xml version="1.0" encoding="iso-8859-1"?>
<!-- Generator: Adobe Illustrator 19.0.0, SVG Export Plug-In . SVG Version: 6.00 Build 0)  -->
<svg version="1.1" id="Capa_1" xmlns="http://www.w3.org/2000/svg" xmlns:xlink="http://www.w3.org/1999/xlink" x="0px" y="0px"
	 viewBox="0 0 512 512" style="enable-background:new 0 0 512 512;" xml:space="preserve">
<path style="fill:#484949;" d="M203.034,459.026V247.172v-70.621V52.966C203.034,23.711,226.754,0,256,0H97.103
	C67.858,0,44.138,23.72,44.138,52.966v123.586v70.621v211.853c0,29.255,23.72,52.974,52.966,52.974H256
	C226.745,512,203.034,488.28,203.034,459.026z"/>
<path style="fill:#EBEBEB;" d="M414.897,0H238.354c-29.255,0-52.966,23.72-52.966,52.966v123.586v70.621v211.853
	C185.379,488.28,209.099,512,238.354,512h176.543c29.255,0,52.966-23.72,52.966-52.966V247.172v-70.621V52.974
	C467.862,23.72,444.151,0,414.897,0z"/>
<path style="fill:#9BCFF1;" d="M397.241,35.31h-8.828c0,19.518-15.793,35.31-35.31,35.31h-52.966
	c-19.518,0-35.31-15.793-35.31-35.31H256c-19.5,0-35.31,15.81-35.31,35.31v379.56c0,14.645,11.873,26.509,26.509,26.509h158.844
	c14.645,0,26.509-11.864,26.509-26.509V70.621C432.552,51.121,416.75,35.31,397.241,35.31z"/>
<path style="fill:#C0C0C0;" d="M353.103,44.138h-52.966c-4.873,0-8.828-3.955-8.828-8.828s3.955-8.828,8.828-8.828h52.966
	c4.873,0,8.828,3.955,8.828,8.828S357.985,44.138,353.103,44.138z"/>
<path style="fill:#69A5E6;" d="M388.414,450.207H264.828c-4.873,0-8.828-3.955-8.828-8.828s3.955-8.828,8.828-8.828h123.586
	c4.873,0,8.828,3.955,8.828,8.828S393.295,450.207,388.414,450.207z"/>
<path style="fill:#848484;" d="M114.759,167.724L114.759,167.724c-14.627,0-26.483-11.855-26.483-26.483V70.621
	c0-14.627,11.855-26.483,26.483-26.483l0,0c14.627,0,26.483,11.855,26.483,26.483v70.621
	C141.241,155.869,129.386,167.724,114.759,167.724z"/>
<g>
	<path style="fill:#EFC586;" d="M114.759,97.103c-4.873,0-8.828-3.955-8.828-8.828v-8.828c0-4.873,3.955-8.828,8.828-8.828
		s8.828,3.955,8.828,8.828v8.828C123.586,93.149,119.631,97.103,114.759,97.103z"/>
	<path style="fill:#EFC586;" d="M114.759,141.241c-4.873,0-8.828-3.955-8.828-8.828v-8.828c0-4.873,3.955-8.828,8.828-8.828
		s8.828,3.955,8.828,8.828v8.828C123.586,137.287,119.631,141.241,114.759,141.241z"/>
</g>
<rect x="353.103" y="114.759" style="fill:#F5CD7B;" width="35.31" height="35.31"/>
<rect x="264.828" y="114.759" style="fill:#EC2827;" width="35.31" height="35.31"/>
<rect x="353.103" y="194.207" style="fill:#484949;" width="35.31" height="35.31"/>
<rect x="264.828" y="194.207" style="fill:#80A506;" width="35.31" height="35.31"/>
<rect x="353.103" y="273.655" style="fill:#7555E3;" width="35.31" height="35.31"/>
<rect x="264.828" y="273.655" style="fill:#E83132;" width="35.31" height="35.31"/>
<rect x="353.103" y="353.103" style="fill:#3BA5CF;" width="35.31" height="35.31"/>
<rect x="264.828" y="353.103" style="fill:#F5AA09;" width="35.31" height="35.31"/>
<g>
</g>
<g>
</g>
<g>
</g>
<g>
</g>
<g>
</g>
<g>
</g>
<g>
</g>
<g>
</g>
<g>
</g>
<g>
</g>
<g>
</g>
<g>
</g>
<g>
</g>
<g>
</g>
<g>
</g>
</svg>
